<?xml version="1.0" encoding="UTF-8" standalone="no"?>
<!-- Created with Inkscape (http://www.inkscape.org/) -->

<svg
   width="1.7276127in"
   height="1.9297087in"
   viewBox="0 0 43.881364 49.014602"
   version="1.1"
   id="svg2771"
   inkscape:version="1.2.2 (b0a8486541, 2022-12-01)"
   sodipodi:docname="aboat.svg"
   xmlns:inkscape="http://www.inkscape.org/namespaces/inkscape"
   xmlns:sodipodi="http://sodipodi.sourceforge.net/DTD/sodipodi-0.dtd"
   xmlns="http://www.w3.org/2000/svg"
   xmlns:svg="http://www.w3.org/2000/svg">
  <sodipodi:namedview
     id="namedview2773"
     pagecolor="#ffffff"
     bordercolor="#666666"
     borderopacity="1.0"
     inkscape:showpageshadow="2"
     inkscape:pageopacity="0.0"
     inkscape:pagecheckerboard="0"
     inkscape:deskcolor="#d1d1d1"
     inkscape:document-units="mm"
     showgrid="false"
     inkscape:zoom="0.914906"
     inkscape:cx="563.44586"
     inkscape:cy="648.15401"
     inkscape:window-width="3840"
     inkscape:window-height="2073"
     inkscape:window-x="0"
     inkscape:window-y="25"
     inkscape:window-maximized="1"
     inkscape:current-layer="layer1" />
  <defs
     id="defs2768" />
  <g
     inkscape:label="Layer 1"
     inkscape:groupmode="layer"
     id="layer1"
     transform="translate(43.91926,23.061342)">
    <g
       id="g2753"
       transform="matrix(0.26458333,0,0,0.26458333,-48.857003,-42.296167)">
      <path
         style="fill:none;stroke:#000000;stroke-width:1px;stroke-linecap:butt;stroke-linejoin:miter;stroke-opacity:1"
         d="m 104.19551,97.907845 c 12.70572,23.002185 16.70235,48.354525 3.60858,78.318695 0,0 55.04622,0.0925 52.88871,0.79938 -2.1575,0.70683 1.03095,6.52832 2.00632,-0.5699 4.08799,-29.75039 -46.56687,-88.121019 -58.50361,-78.548175 z"
         id="path1124"
         sodipodi:nodetypes="ccssc" />
      <path
         style="fill:none;stroke:#000000;stroke-width:1px;stroke-linecap:butt;stroke-linejoin:miter;stroke-opacity:1"
         d="M 92.250047,94.17526 C 78.910758,92.339084 73.954258,192.23645 89.701093,195.89557 L 32.953311,196.1906 C 32.015108,153.25509 51.398425,119.08509 92.250047,94.17526 Z"
         id="path1126"
         sodipodi:nodetypes="cccc" />
      <path
         style="fill:none;stroke:#000000;stroke-width:1px;stroke-linecap:butt;stroke-linejoin:miter;stroke-opacity:1"
         d="m 103.64232,77.926705 c 2.39463,4.861312 4.76209,9.718813 -1.08769,13.423852 0,0 -0.31684,5.295689 -0.27047,3.463842 0.15753,-6.222574 32.83239,-6.128215 33.42334,-3.818769 -8.43244,-9.579331 -18.05647,-17.223906 -32.92756,-16.349055 z"
         id="path1128"
         sodipodi:nodetypes="ccsccc" />
      <path
         style="fill:none;stroke:#000000;stroke-width:1px;stroke-linecap:butt;stroke-linejoin:miter;stroke-opacity:1"
         d="m 101.78805,73.329402 -3.319525,0.781776 -1.017638,129.702482 -78.279794,1.18428 c 0.51217,29.04823 16.639662,42.97878 37.371403,52.45182 l 85.917904,-0.6576 c 37.24464,-11.04473 35.87481,-32.41834 41.39546,-51.94883 l -81.55791,-1.6022 z"
         id="path1130"
         sodipodi:nodetypes="ccccccccc" />
    </g>
  </g>
</svg>
